<svg xmlns="http://www.w3.org/2000/svg" viewBox="0 0 1600 1000" width="1600" height="1000" role="img">

  <defs>
    <linearGradient id="bge" x1="0" y1="0" x2="1" y2="1">
      <stop offset="0" stop-color="#0b0616"/><stop offset="1" stop-color="#07040f"/>
    </linearGradient>
    <radialGradient id="gle" cx=".5" cy=".18" r=".85">
      <stop offset="0" stop-color="#f59e0b" stop-opacity=".38"/>
      <stop offset=".55" stop-color="#f59e0b" stop-opacity=".08"/>
      <stop offset="1" stop-color="#f59e0b" stop-opacity="0"/>
    </radialGradient>
    <radialGradient id="g2e" cx=".88" cy=".9" r=".7">
      <stop offset="0" stop-color="#6366f1" stop-opacity=".3"/>
      <stop offset="1" stop-color="#6366f1" stop-opacity="0"/>
    </radialGradient>
    <linearGradient id="ace" x1="0" y1="0" x2="1" y2="0">
      <stop offset="0" stop-color="#f59e0b"/><stop offset="1" stop-color="#6366f1"/>
    </linearGradient>
  </defs>
  <rect width="1600" height="1000" fill="url(#bge)"/>
  <rect width="1600" height="1000" fill="url(#gle)"/>
  <rect width="1600" height="1000" fill="url(#g2e)"/>
  <g font-family="'Plus Jakarta Sans',system-ui,sans-serif">


    <rect x="120" y="110" width="1360" height="790" rx="18" fill="#0f0a1d" stroke="rgba(255,255,255,.10)"/>
    <path d="M120 156h1360" stroke="rgba(255,255,255,.08)"/>
    <circle cx="144" cy="133" r="5" fill="rgba(255,255,255,.16)"/>
    <circle cx="162" cy="133" r="5" fill="rgba(255,255,255,.16)"/>
    <circle cx="180" cy="133" r="5" fill="#f59e0b" opacity=".7"/>
    <text x="204" y="138" font-size="15" fill="rgba(255,255,255,.42)" font-weight="500">Sleuth · Investigating "Piramal Finance" — 9 agents</text>

    <text x="160" y="214" font-size="13" fill="rgba(255,255,255,.4)" font-weight="600">AGENT GRAPH</text>

    <g stroke="rgba(255,255,255,.14)" fill="none">
      <path d="M420 260C520 260 520 300 600 300M420 380C520 380 520 300 600 300"/>
      <path d="M420 380C520 380 520 430 600 430M420 500C520 500 520 430 600 430"/>
      <path d="M420 500C520 500 520 560 600 560"/>
      <path d="M740 300C840 300 840 300 920 300M740 430C840 430 840 430 920 430"/>
      <path d="M740 560C840 560 840 560 920 560M740 300C840 300 840 430 920 430"/>
    </g>

    
    <rect x="200" y="233" width="200" height="54" rx="14" fill="rgba(255,255,255,.04)" stroke="rgba(255,255,255,.09)"/>
    <circle cx="226" cy="260" r="6" fill="#4ade80"/>
    <text x="244" y="265" font-size="15" fill="rgba(255,255,255,.8)" font-weight="600">Planner</text>
    <rect x="200" y="353" width="200" height="54" rx="14" fill="rgba(255,255,255,.04)" stroke="rgba(255,255,255,.09)"/>
    <circle cx="226" cy="380" r="6" fill="#4ade80"/>
    <text x="244" y="385" font-size="15" fill="rgba(255,255,255,.8)" font-weight="600">Search</text>
    <rect x="200" y="473" width="200" height="54" rx="14" fill="rgba(255,255,255,.04)" stroke="rgba(255,255,255,.09)"/>
    <circle cx="226" cy="500" r="6" fill="#4ade80"/>
    <text x="244" y="505" font-size="15" fill="rgba(255,255,255,.8)" font-weight="600">Filings</text>
    <rect x="520" y="273" width="200" height="54" rx="14" fill="rgba(245,158,11,.12)" stroke="rgba(251,191,36,.55)"/>
    <circle cx="546" cy="300" r="6" fill="#fbbf24" opacity=".95"/>
    <text x="564" y="305" font-size="15" fill="rgba(255,255,255,.8)" font-weight="600">Competitors</text>
    <rect x="520" y="403" width="200" height="54" rx="14" fill="rgba(245,158,11,.12)" stroke="rgba(251,191,36,.55)"/>
    <circle cx="546" cy="430" r="6" fill="#fbbf24" opacity=".95"/>
    <text x="564" y="435" font-size="15" fill="rgba(255,255,255,.8)" font-weight="600">Market size</text>
    <rect x="520" y="533" width="200" height="54" rx="14" fill="rgba(255,255,255,.04)" stroke="rgba(255,255,255,.09)"/>
    <circle cx="546" cy="560" r="6" fill="rgba(255,255,255,.25)"/>
    <text x="564" y="565" font-size="15" fill="rgba(255,255,255,.42)" font-weight="600">Sentiment</text>
    <rect x="840" y="273" width="200" height="54" rx="14" fill="rgba(255,255,255,.04)" stroke="rgba(255,255,255,.09)"/>
    <circle cx="866" cy="300" r="6" fill="rgba(255,255,255,.25)"/>
    <text x="884" y="305" font-size="15" fill="rgba(255,255,255,.42)" font-weight="600">SWOT</text>
    <rect x="840" y="403" width="200" height="54" rx="14" fill="rgba(255,255,255,.04)" stroke="rgba(255,255,255,.09)"/>
    <circle cx="866" cy="430" r="6" fill="rgba(255,255,255,.25)"/>
    <text x="884" y="435" font-size="15" fill="rgba(255,255,255,.42)" font-weight="600">Citations</text>
    <rect x="840" y="533" width="200" height="54" rx="14" fill="rgba(255,255,255,.04)" stroke="rgba(255,255,255,.09)"/>
    <circle cx="866" cy="560" r="6" fill="rgba(255,255,255,.25)"/>
    <text x="884" y="565" font-size="15" fill="rgba(255,255,255,.42)" font-weight="600">Report</text>

    <rect x="1090" y="232" width="340" height="466" rx="14" fill="rgba(255,255,255,.035)" stroke="rgba(255,255,255,.08)"/>
    <text x="1122" y="274" font-size="13" fill="rgba(255,255,255,.4)" font-weight="600">LIVE REPORT</text>
    <rect x="1122" y="304" width="250" height="9" rx="4.5" fill="rgba(255,255,255,0.18)"/>
    <rect x="1122" y="330" width="276" height="9" rx="4.5" fill="rgba(255,255,255,0.18)"/>
    <rect x="1122" y="356" width="190" height="9" rx="4.5" fill="rgba(255,255,255,0.18)"/>
    <rect x="1122" y="392" width="276" height="1" fill="rgba(255,255,255,.08)"/>
    <rect x="1122" y="418" width="230" height="9" rx="4.5" fill="rgba(255,255,255,0.13)"/>
    <rect x="1122" y="444" width="268" height="9" rx="4.5" fill="rgba(255,255,255,0.13)"/>
    <rect x="1122" y="470" width="160" height="9" rx="4.5" fill="rgba(255,255,255,0.13)"/>
    <rect x="1122" y="510" width="150" height="30" rx="15" fill="rgba(99,102,241,.16)" stroke="rgba(129,140,248,.45)"/>
    <text x="1142" y="530" font-size="13" fill="#a5b4fc" font-weight="600">14 citations</text>
    <rect x="1122" y="568" width="240" height="9" rx="4.5" fill="rgba(255,255,255,0.1)"/>
    <rect x="1122" y="594" width="200" height="9" rx="4.5" fill="rgba(255,255,255,0.1)"/>
    <rect x="1122" y="634" width="276" height="34" rx="10" fill="rgba(245,158,11,.12)" stroke="rgba(251,191,36,.4)"/>
    <text x="1142" y="656" font-size="13" fill="#fcd34d" font-weight="600">Streaming — 4 of 9 complete</text>

    <text x="160" y="800" font-size="13" fill="rgba(255,255,255,.3)" font-weight="600">LANGGRAPH · FASTAPI STREAMING · NEXT.JS CONSOLE</text>

  </g>
</svg>
